<svg width="32" height="33" viewBox="0 0 32 33" fill="none" xmlns="http://www.w3.org/2000/svg">
<path d="M2.93749 3.1093C0.50141 5.63968 0.999993 8.32763 0.999993 16.4936C0.999993 23.2748 -0.183174 30.0728 6.00908 31.6732C7.9427 32.1705 25.0754 32.1705 27.0064 31.6706C29.5846 31.0054 31.6822 28.9142 31.969 25.2678C32.009 24.7589 32.009 8.23722 31.9677 7.71797C31.6629 3.83393 29.272 1.59547 26.1216 1.14209C25.3996 1.03747 25.2549 1.00647 21.5504 1.00001C8.41028 1.00647 5.52987 0.421342 2.93749 3.1093Z" fill="url(#paint0_linear)"/>
<path d="M16.4974 5.05453C11.8073 5.05453 7.35367 4.63733 5.65255 9.00316C4.94988 10.8063 5.05192 13.1481 5.05192 16.5013C5.05192 19.4437 4.95763 22.2092 5.65255 23.9981C7.3498 28.3665 11.8396 27.948 16.4948 27.948C20.9859 27.948 25.6165 28.4156 27.3383 23.9981C28.0423 22.1769 27.939 19.87 27.939 16.5013C27.939 12.0295 28.1857 9.14266 26.017 6.97524C23.8211 4.77941 20.8516 5.05453 16.4922 5.05453H16.4974ZM15.4718 7.11733C25.2549 7.10183 26.5 6.01424 25.8129 21.1229C25.5688 26.4665 21.5 25.8801 16.4987 25.8801C7.3795 25.8801 7.1173 25.6192 7.1173 16.4961C7.1173 7.26716 7.84063 7.12249 15.4718 7.11474V7.11733ZM22.607 9.01737C21.8488 9.01737 21.2339 9.6322 21.2339 10.3904C21.2339 11.1486 21.8488 11.7635 22.607 11.7635C23.3652 11.7635 23.98 11.1486 23.98 10.3904C23.98 9.6322 23.3652 9.01737 22.607 9.01737ZM16.4974 10.6229C13.2514 10.6229 10.6203 13.2553 10.6203 16.5013C10.6203 19.7472 13.2514 22.3784 16.4974 22.3784C19.7433 22.3784 22.3732 19.7472 22.3732 16.5013C22.3732 13.2553 19.7433 10.6229 16.4974 10.6229ZM16.4974 12.6857C21.5413 12.6857 21.5478 20.3169 16.4974 20.3169C11.4547 20.3169 11.447 12.6857 16.4974 12.6857Z" fill="white"/>
<defs>
<linearGradient id="paint0_linear" x1="2.99694" y1="30.02" x2="31.8082" y2="5.08423" gradientUnits="userSpaceOnUse">
<stop stop-color="#FFDD55"/>
<stop offset="0.5" stop-color="#FF543E"/>
<stop offset="1" stop-color="#C837AB"/>
</linearGradient>
</defs>
</svg>
