<svg width="40" height="40" viewBox="0 0 40 40" fill="none" xmlns="http://www.w3.org/2000/svg">
<path d="M31.0001 18.4835H23.7208L21.9495 13.1668C21.8108 12.7508 21.4081 12.4228 20.9788 12.4834C20.5395 12.4934 20.1588 12.7861 20.0395 13.2081L17.1216 23.4189L13.9769 9.26676C13.8808 8.83879 13.5182 8.52278 13.0802 8.48746C12.6449 8.45817 12.2342 8.70411 12.0722 9.11215L8.32222 18.4835H1C0.447346 18.4835 0 18.9309 0 19.4835C0 20.0362 0.447346 20.4835 1 20.4835H9.00004C9.40801 20.4842 9.77738 20.2356 9.92801 19.8549L12.7267 12.8608L16.0233 27.7009C16.1226 28.1483 16.5133 28.4702 16.9707 28.4843C16.9807 28.4843 16.99 28.4843 17 28.4843C17.4453 28.4843 17.838 28.1896 17.9607 27.7596L21.0741 16.8669L22.0507 19.8003C22.1874 20.2082 22.57 20.4836 23 20.4836H31C31.5527 20.4836 32 20.0363 32 19.4836C32.0001 18.9307 31.5528 18.4835 31.0001 18.4835Z" fill="#90C19D"/>
<path d="M36.4854 5.02927C34.1421 2.68598 31.0708 1.51465 28 1.51465C25.1267 1.51465 22.2767 2.582 20 4.63333C17.7227 2.582 14.8734 1.51465 12 1.51465C8.92865 1.51465 5.85794 2.68598 3.51465 5.02935C0.407292 8.13733 -0.593415 12.5147 0.420651 16.4853H2.50066C1.43401 13.05 2.21331 9.15929 4.92864 6.44396C6.81731 4.55529 9.32865 3.51528 12 3.51528C14.438 3.51528 16.7187 4.41864 18.5387 6.00662L20 7.37264L21.462 6.00599C23.2821 4.41864 25.5628 3.51466 28 3.51466C30.6714 3.51466 33.1821 4.55466 35.0714 6.44334C38.9707 10.342 38.9701 16.6867 35.0714 20.5854L20 35.6567L6.82864 22.4854H3.99996L20 38.4854L36.4854 22C41.1714 17.3134 41.1714 9.71601 36.4854 5.02927Z" fill="#90C19D"/>
</svg>
