<svg width="48" height="48" viewBox="0 0 48 48" fill="none" xmlns="http://www.w3.org/2000/svg">
<path d="M28.5166 35.321H28.5091C28.1208 35.321 27.8098 35.6359 27.8098 36.0242C27.8098 36.4125 28.1283 36.7273 28.5166 36.7273C28.9049 36.7273 29.2198 36.4126 29.2198 36.0242C29.2198 35.6359 28.9049 35.321 28.5166 35.321Z" fill="#90C19D"/>
<path d="M36.2784 29.8929L29.4011 26.9455C28.86 26.7136 28.5008 26.1991 28.4644 25.6171C33.737 24.2289 37.1267 20.8861 37.273 20.7397C37.5197 20.493 37.5473 20.1017 37.3392 19.8218C37.318 19.7934 35.2244 16.929 35.2244 12.7273V11.2243C35.2244 5.03523 30.1892 0 24.0001 0C17.811 0 12.7757 5.03523 12.7757 11.2243V12.7273C12.7757 16.9289 10.682 19.7934 10.6618 19.8207C10.4518 20.1006 10.4797 20.4923 10.7271 20.7397C10.8734 20.8861 14.2631 24.2289 19.5357 25.6171C19.4992 26.1991 19.1401 26.7136 18.599 26.9455L11.7217 29.8929C10.0793 30.5967 9.01813 32.2061 9.01813 33.9929V44.2909C9.01813 46.3361 10.6821 48 12.7274 48H19.491C21.1218 48 22.4486 46.6732 22.4486 45.0424C22.4486 45.0261 22.4477 45.0101 22.4474 44.994H25.5526C25.5523 45.0101 25.5513 45.0261 25.5513 45.0424C25.5513 46.6732 26.8781 48 28.509 48H35.2726C37.3178 48 38.9818 46.336 38.9818 44.2909V33.9929C38.982 32.2061 37.9207 30.5967 36.2784 29.8929ZM30.6942 29.0296L33.0665 30.0464V34.4429C32.0331 33.584 30.7062 33.0666 29.2606 33.0666H28.928C29.9439 31.9679 30.5759 30.549 30.6942 29.0296ZM31.5139 35.0713C31.2524 36.4964 29.9839 37.5757 28.5092 37.5757C26.8249 37.5757 25.4547 36.2055 25.4547 34.5213C25.4547 34.5051 25.4556 34.489 25.4559 34.4729H29.2607C30.0799 34.4729 30.8487 34.6913 31.5139 35.0713ZM35.8577 20.1277C34.8603 20.9916 32.1592 23.0973 28.4608 24.1589V22.6325C30.7204 21.1664 32.2184 18.6217 32.2184 15.7334V11.9342C32.7324 11.9285 33.2658 11.9034 33.8181 11.8559V12.7274C33.8181 16.3496 35.1887 19.0334 35.8577 20.1277ZM24.0001 1.40625C29.1519 1.40625 33.3893 5.39485 33.7873 10.4462C29.4399 10.8382 26.3999 9.75424 24.5898 8.74736C22.5374 7.60567 21.571 6.31304 21.5628 6.30198C21.4185 6.10332 21.1812 5.9942 20.9361 6.01454C20.6913 6.03479 20.4749 6.18114 20.3651 6.40089C19.5211 8.08886 18.1199 9.29374 16.2005 9.98224C15.4242 10.2607 14.7126 10.3953 14.2115 10.4604C14.6027 5.40226 18.8434 1.40625 24.0001 1.40625ZM12.1425 20.1277C12.8114 19.0335 14.182 16.3496 14.182 12.7273V11.8829C15.6543 11.7276 19.0718 11.0306 21.1188 7.90745C21.6722 8.4573 22.5654 9.21996 23.8311 9.93424C25.3593 10.7966 27.6775 11.7115 30.812 11.9V15.7334C30.812 19.4895 27.7562 22.5454 24.0001 22.5454C20.244 22.5454 17.1881 19.4895 17.1881 15.7334V13.4789C17.1881 13.0905 16.8733 12.7758 16.485 12.7758C16.0966 12.7758 15.7818 13.0905 15.7818 13.4789V15.7334C15.7818 18.6218 17.2798 21.1665 19.5394 22.6325V24.1589C15.8407 23.0972 13.1394 20.9912 12.1425 20.1277ZM18.6936 28.435L19.1531 28.238C20.242 27.7713 20.9457 26.7043 20.9457 25.5195V23.3627C21.8904 23.7423 22.9213 23.9517 24.0002 23.9517C25.079 23.9517 26.1098 23.7423 27.0546 23.3627V25.5195C27.0546 26.7042 27.7582 27.7713 28.8472 28.238L29.308 28.4355C29.3084 28.46 29.3092 28.4846 29.3092 28.5091C29.3092 30.3789 28.3218 32.1091 26.7207 33.0666H21.2799C19.6787 32.1091 18.6914 30.3789 18.6914 28.5091C18.6914 28.4845 18.6933 28.4597 18.6936 28.435ZM14.9336 30.0464L17.3059 29.0296C17.4242 30.549 18.0563 31.9679 19.0721 33.0666H18.7396C17.2939 33.0666 15.9671 33.5839 14.9336 34.4429V30.0464ZM19.491 46.5938H12.7274C11.4575 46.5938 10.4244 45.5607 10.4244 44.291V33.9929C10.4244 32.7693 11.151 31.6674 12.2757 31.1854L13.5272 30.649V36.1367C13.0492 36.9943 12.7757 37.9807 12.7757 39.0303C12.7757 40.5093 13.3211 41.928 14.3113 43.025C14.5792 43.3218 14.9703 43.4919 15.3846 43.4919C15.3847 43.4919 15.3848 43.4919 15.3849 43.4919L19.4906 43.4909C19.4907 43.4909 19.4909 43.4909 19.491 43.4909C19.9052 43.4909 20.2948 43.6522 20.5878 43.9452C20.8809 44.2382 21.0423 44.6278 21.0423 45.0424C21.0424 45.8978 20.3464 46.5938 19.491 46.5938ZM21.7818 38.3753C22.8538 40.3861 24.3383 42.0038 26.2015 43.1957C26.1029 43.3187 26.0139 43.4497 25.9356 43.5877H22.0667V43.5878C21.9362 43.3575 21.7744 43.1431 21.5821 42.9508C21.0236 42.3923 20.281 42.0848 19.4911 42.0848C19.4909 42.0848 19.4906 42.0848 19.4903 42.0848L15.3847 42.0859C15.3657 42.0859 15.3538 42.0809 15.3553 42.0829C14.5988 41.2447 14.1821 40.1607 14.1821 39.0304C14.1821 36.5174 16.2266 34.473 18.7396 34.473H20.3921C20.4536 34.7974 20.5504 35.2296 20.7009 35.7368C20.7916 36.0424 21.0715 36.2401 21.3748 36.2401C21.441 36.2401 21.5083 36.2306 21.575 36.2108C21.9473 36.1004 22.1596 35.709 22.0491 35.3368C21.9516 35.0083 21.88 34.7167 21.8272 34.4729H24.0497C24.0496 34.489 24.0485 34.5051 24.0485 34.5213C24.0485 36.9809 26.0496 38.982 28.5093 38.982C29.6322 38.982 30.7051 38.5633 31.5305 37.803C32.0616 37.3139 32.4596 36.711 32.7012 36.0465C33.3961 36.8466 33.8182 37.8899 33.8182 39.0304C33.8182 40.1601 33.4019 41.244 32.65 42.0781C32.6473 42.0799 32.6353 42.0849 32.6167 42.0849L28.5093 42.0847C28.1262 42.0847 27.7603 42.1588 27.4239 42.2919C25.5469 41.2095 24.0662 39.6713 23.0227 37.7138C22.84 37.3712 22.4143 37.2416 22.0715 37.4241C21.7289 37.6068 21.5991 38.0327 21.7818 38.3753ZM37.5759 44.291H37.5758C37.5758 45.5608 36.5427 46.5938 35.2729 46.5938H28.5093C27.6538 46.5938 26.9579 45.8978 26.9579 45.0425C26.9579 44.1871 27.6538 43.4911 28.5093 43.4911L32.6165 43.4913C32.6166 43.4913 32.6166 43.4913 32.6167 43.4913C33.0308 43.4913 33.422 43.321 33.69 43.024C34.6795 41.9271 35.2245 40.5088 35.2245 39.0304C35.2245 37.9808 34.951 36.9944 34.473 36.1368V30.6491L35.7246 31.1855C36.8493 31.6675 37.5759 32.7695 37.5759 33.993V44.291Z" fill="#90C19D"/>
<path d="M22.1556 13.2848C21.84 13.0584 21.4009 13.1305 21.1744 13.446C21.0958 13.5556 20.9029 13.6834 20.6183 13.6834C20.3337 13.6834 20.1409 13.5556 20.0623 13.4461C19.8359 13.1306 19.3966 13.0584 19.0811 13.2848C18.7656 13.5112 18.6934 13.9505 18.9199 14.266C19.2899 14.7818 19.9249 15.0897 20.6182 15.0897C21.3115 15.0897 21.9464 14.7818 22.3167 14.2661C22.5432 13.9506 22.471 13.5113 22.1556 13.2848Z" fill="#90C19D"/>
<path d="M26.7544 17.4933C26.4813 17.2173 26.0361 17.2148 25.7601 17.488C25.5035 17.7419 24.8886 18.0384 24.0001 18.0384C23.1117 18.0384 22.4967 17.7419 22.2401 17.488C21.964 17.2148 21.5188 17.2172 21.2456 17.4933C20.9725 17.7693 20.9749 18.2145 21.251 18.4876C21.8565 19.0869 22.8843 19.4446 24 19.4446C25.1158 19.4446 26.1435 19.0869 26.7491 18.4876C27.0252 18.2145 27.0275 17.7693 26.7544 17.4933Z" fill="#90C19D"/>
<path d="M28.9192 13.2848C28.6037 13.0584 28.1644 13.1305 27.938 13.4461C27.8594 13.5556 27.6666 13.6834 27.382 13.6834C27.0974 13.6834 26.9045 13.5556 26.8259 13.446C26.5994 13.1305 26.1601 13.0584 25.8447 13.2848C25.5292 13.5113 25.4571 13.9506 25.6836 14.2661C26.0536 14.7818 26.6886 15.0897 27.3819 15.0897C28.0753 15.0897 28.7101 14.7818 29.0804 14.266C29.3069 13.9505 29.2347 13.5112 28.9192 13.2848Z" fill="#90C19D"/>
</svg>
